<svg width="218" height="179" viewBox="0 0 218 179" fill="none" xmlns="http://www.w3.org/2000/svg">
<path d="M43.26 11.99H54.53V77.65H43.26V11.99ZM52.01 36.84H63.28V46.15H52.01V36.84ZM2.17 21.23H40.18V30.12H2.17V21.23ZM21.28 32.92C24.5 32.92 27.37 33.62 29.89 35.02C32.4567 36.3733 34.4867 38.24 35.98 40.62C37.4733 43 38.22 45.7533 38.22 48.88C38.22 51.96 37.4733 54.7133 35.98 57.14C34.4867 59.52 32.4567 61.41 29.89 62.81C27.37 64.1633 24.4767 64.84 21.21 64.84C17.99 64.84 15.0967 64.1633 12.53 62.81C9.96333 61.41 7.93333 59.52 6.44 57.14C4.94667 54.7133 4.2 51.96 4.2 48.88C4.2 45.7533 4.94667 43 6.44 40.62C7.93333 38.24 9.96333 36.3733 12.53 35.02C15.0967 33.62 18.0133 32.92 21.28 32.92ZM21.21 42.02C19.9967 42.02 18.9233 42.2767 17.99 42.79C17.0567 43.3033 16.31 44.0733 15.75 45.1C15.2367 46.08 14.98 47.3167 14.98 48.81C14.98 50.35 15.2367 51.6333 15.75 52.66C16.31 53.6867 17.0567 54.4567 17.99 54.97C18.9233 55.4833 19.9967 55.74 21.21 55.74C22.4233 55.74 23.4967 55.4833 24.43 54.97C25.3633 54.4567 26.0867 53.6867 26.6 52.66C27.16 51.6333 27.44 50.35 27.44 48.81C27.44 47.3167 27.16 46.08 26.6 45.1C26.0867 44.0733 25.3633 43.3033 24.43 42.79C23.4967 42.2767 22.4233 42.02 21.21 42.02ZM15.54 13.18H26.88V24.45H15.54V13.18ZM67.9645 13.74H114.095V34.6H79.5145V43.84H68.0345V26.27H102.615V22.63H67.9645V13.74ZM68.0345 38.38H115.775V47.2H68.0345V38.38ZM61.3145 50.98H120.745V59.94H61.3145V50.98ZM85.2545 54.2H96.5245V77.79H85.2545V54.2Z" fill="#36C8B7"/>
<path fill-rule="evenodd" clip-rule="evenodd" d="M191.682 94.3229L138.205 147.567C131.078 154.525 121.492 158.389 111.532 158.319C101.571 158.248 92.041 154.249 85.013 147.19C77.985 140.132 74.0272 130.584 74.0001 120.623C73.973 110.662 77.8788 101.094 84.8683 93.9967L138.345 40.7529C145.472 33.7944 155.058 29.9304 165.019 30.0009C174.979 30.0715 184.509 34.0708 191.537 41.1295C198.565 48.1882 202.523 57.7356 202.55 67.6964C202.577 77.6572 198.672 87.2261 191.682 94.3229ZM182.362 50.266C177.78 45.6698 171.56 43.0799 165.07 43.0649C158.58 43.05 152.349 45.6111 147.745 50.1861L94.2615 103.43C89.6595 108.012 87.0661 114.234 87.0517 120.728C87.0373 127.221 89.6032 133.455 94.1849 138.057C98.7666 142.659 104.989 145.252 111.483 145.267C117.976 145.281 124.21 142.715 128.812 138.134L182.289 84.8898C186.887 80.3069 189.478 74.0864 189.493 67.5944C189.508 61.1024 186.946 54.87 182.369 50.266H182.362Z" fill="#36C8B7"/>
<path fill-rule="evenodd" clip-rule="evenodd" d="M113.427 69.1864C114.676 67.9384 116.369 67.2373 118.134 67.2373C119.899 67.2373 121.592 67.9384 122.84 69.1864L163.116 109.462C164.329 110.718 165 112.399 164.985 114.145C164.969 115.89 164.269 117.56 163.035 118.794C161.801 120.029 160.131 120.729 158.386 120.744C156.64 120.759 154.958 120.088 153.703 118.875L113.427 78.5996C112.179 77.3512 111.478 75.6583 111.478 73.893C111.478 72.1278 112.179 70.4348 113.427 69.1864Z" fill="#36C8B7"/>
<path d="M149.072 161.855H133.418V145.894H149.072V161.855ZM149.072 130.82H133.418V113.833H149.072V130.82ZM155.711 139.1H215.141V147.99H155.711V139.1ZM179.651 130.07H190.921V142.95H179.651V130.07ZM162.641 161.71H208.421V170.67H162.641V161.71ZM162.641 151.56H173.911V164.79H162.641V151.56ZM185.461 107.46C190.268 107.46 194.468 108.02 198.061 109.14C201.701 110.26 204.525 111.847 206.531 113.9C208.585 115.953 209.611 118.38 209.611 121.18C209.611 124.027 208.585 126.477 206.531 128.53C204.525 130.583 201.701 132.17 198.061 133.29C194.468 134.41 190.268 134.97 185.461 134.97C180.655 134.97 176.431 134.41 172.791 133.29C169.198 132.17 166.375 130.583 164.321 128.53C162.315 126.477 161.311 124.027 161.311 121.18C161.311 118.38 162.315 115.953 164.321 113.9C166.375 111.847 169.198 110.26 172.791 109.14C176.431 108.02 180.655 107.46 185.461 107.46ZM185.461 116.35C182.801 116.35 180.538 116.537 178.671 116.91C176.805 117.237 175.381 117.75 174.401 118.45C173.468 119.15 173.001 120.06 173.001 121.18C173.001 122.3 173.468 123.233 174.401 123.98C175.381 124.68 176.805 125.217 178.671 125.59C180.538 125.917 182.801 126.08 185.461 126.08C188.168 126.08 190.431 125.917 192.251 125.59C194.118 125.217 195.518 124.68 196.451 123.98C197.431 123.233 197.921 122.3 197.921 121.18C197.921 120.06 197.431 119.15 196.451 118.45C195.518 117.75 194.118 117.237 192.251 116.91C190.431 116.537 188.168 116.35 185.461 116.35Z" fill="#002E28"/>
</svg>
